<svg width="27" height="11" viewBox="0 0 27 11" fill="none" xmlns="http://www.w3.org/2000/svg">
<path d="M-5.54621e-05 5.47159V4.94319C0.474376 4.94319 0.805342 4.84375 0.992842 4.64489C1.18318 4.44603 1.27835 4.11364 1.27835 3.64773V2.28409C1.27835 1.89205 1.31529 1.55256 1.38915 1.26563C1.46585 0.978697 1.58943 0.741481 1.75989 0.553981C1.93034 0.366481 2.15762 0.227277 2.44171 0.136368C2.7258 0.0454583 3.07665 3.57628e-06 3.49426 3.57628e-06V0.835231C3.16472 0.835231 2.90477 0.886368 2.71443 0.98864C2.52693 1.09091 2.39341 1.25 2.31387 1.46591C2.23716 1.67898 2.19881 1.95171 2.19881 2.28409V3.98864C2.19881 4.21023 2.16898 4.41194 2.10932 4.59375C2.0525 4.77557 1.94597 4.93182 1.78972 5.0625C1.63347 5.19319 1.41046 5.29404 1.12068 5.36506C0.833751 5.43608 0.460172 5.47159 -5.54621e-05 5.47159ZM3.49426 10.9091C3.07665 10.9091 2.7258 10.8636 2.44171 10.7727C2.15762 10.6818 1.93034 10.5426 1.75989 10.3551C1.58943 10.1676 1.46585 9.9304 1.38915 9.64347C1.31529 9.35654 1.27835 9.01705 1.27835 8.625V7.26137C1.27835 6.79546 1.18318 6.46307 0.992842 6.26421C0.805342 6.06534 0.474376 5.96591 -5.54621e-05 5.96591V5.4375C0.460172 5.4375 0.833751 5.47302 1.12068 5.54404C1.41046 5.61506 1.63347 5.71591 1.78972 5.84659C1.94597 5.97728 2.0525 6.13353 2.10932 6.31534C2.16898 6.49716 2.19881 6.69887 2.19881 6.92046V8.625C2.19881 8.95739 2.23716 9.23012 2.31387 9.44319C2.39341 9.65625 2.52693 9.81392 2.71443 9.9162C2.90477 10.0213 3.16472 10.0739 3.49426 10.0739V10.9091ZM-5.54621e-05 5.96591V4.94319H1.00563V5.96591H-5.54621e-05ZM4.3476 5.47159V4.94319C4.82203 4.94319 5.153 4.84375 5.3405 4.64489C5.53084 4.44603 5.62601 4.11364 5.62601 3.64773V2.28409C5.62601 1.89205 5.66294 1.55256 5.73681 1.26563C5.81351 0.978697 5.93709 0.741481 6.10754 0.553981C6.278 0.366481 6.50527 0.227277 6.78936 0.136368C7.07345 0.0454583 7.42431 3.57628e-06 7.84192 3.57628e-06V0.835231C7.51237 0.835231 7.25243 0.886368 7.06209 0.98864C6.87459 1.09091 6.74107 1.25 6.66152 1.46591C6.58482 1.67898 6.54646 1.95171 6.54646 2.28409V3.98864C6.54646 4.21023 6.51664 4.41194 6.45698 4.59375C6.40016 4.77557 6.29362 4.93182 6.13737 5.0625C5.98112 5.19319 5.75811 5.29404 5.46834 5.36506C5.18141 5.43608 4.80783 5.47159 4.3476 5.47159ZM7.84192 10.9091C7.42431 10.9091 7.07345 10.8636 6.78936 10.7727C6.50527 10.6818 6.278 10.5426 6.10754 10.3551C5.93709 10.1676 5.81351 9.9304 5.73681 9.64347C5.66294 9.35654 5.62601 9.01705 5.62601 8.625V7.26137C5.62601 6.79546 5.53084 6.46307 5.3405 6.26421C5.153 6.06534 4.82203 5.96591 4.3476 5.96591V5.4375C4.80783 5.4375 5.18141 5.47302 5.46834 5.54404C5.75811 5.61506 5.98112 5.71591 6.13737 5.84659C6.29362 5.97728 6.40016 6.13353 6.45698 6.31534C6.51664 6.49716 6.54646 6.69887 6.54646 6.92046V8.625C6.54646 8.95739 6.58482 9.23012 6.66152 9.44319C6.74107 9.65625 6.87459 9.81392 7.06209 9.9162C7.25243 10.0213 7.51237 10.0739 7.84192 10.0739V10.9091ZM4.3476 5.96591V4.94319H5.35328V5.96591H4.3476ZM9.17253 9.13637V2.59091H10.1782V9.13637H9.17253ZM9.68389 1.5C9.48787 1.5 9.31884 1.43324 9.17679 1.29972C9.03759 1.1662 8.96798 1.00569 8.96798 0.818186C8.96798 0.630686 9.03759 0.470175 9.17679 0.336652C9.31884 0.203129 9.48787 0.136368 9.68389 0.136368C9.87992 0.136368 10.0475 0.203129 10.1867 0.336652C10.3288 0.470175 10.3998 0.630686 10.3998 0.818186C10.3998 1.00569 10.3288 1.1662 10.1867 1.29972C10.0475 1.43324 9.87992 1.5 9.68389 1.5ZM14.4918 9.27273C13.9463 9.27273 13.4648 9.13495 13.0472 8.85938C12.6296 8.58097 12.3029 8.18892 12.0671 7.68324C11.8313 7.17472 11.7134 6.57387 11.7134 5.88069C11.7134 5.19319 11.8313 4.59659 12.0671 4.09091C12.3029 3.58523 12.631 3.19461 13.0514 2.91904C13.4719 2.64347 13.9577 2.50569 14.5088 2.50569C14.935 2.50569 15.2716 2.57671 15.5188 2.71875C15.7688 2.85796 15.9591 3.01705 16.0898 3.19603C16.2233 3.37216 16.327 3.51705 16.4009 3.63069H16.4861V0.409095H17.4918V9.13637H16.5202V8.13069H16.4009C16.327 8.25 16.2219 8.40057 16.0855 8.58239C15.9492 8.76137 15.7546 8.92188 15.5017 9.06392C15.2489 9.20313 14.9122 9.27273 14.4918 9.27273ZM14.6281 8.36932C15.0315 8.36932 15.3725 8.26421 15.6509 8.05398C15.9293 7.84091 16.1409 7.54688 16.2858 7.17188C16.4307 6.79404 16.5031 6.35796 16.5031 5.86364C16.5031 5.375 16.4321 4.94745 16.2901 4.58097C16.148 4.21165 15.9378 3.92472 15.6594 3.72017C15.381 3.51279 15.0372 3.40909 14.6281 3.40909C14.202 3.40909 13.8469 3.51847 13.5628 3.73722C13.2815 3.95313 13.0699 4.24716 12.9279 4.61932C12.7887 4.98864 12.719 5.40341 12.719 5.86364C12.719 6.32955 12.7901 6.75284 12.9321 7.13353C13.077 7.51137 13.2901 7.8125 13.5713 8.03694C13.8554 8.25853 14.2077 8.36932 14.6281 8.36932ZM22.4563 5.4375V5.96591C21.9818 5.96591 21.6494 6.06534 21.4591 6.26421C21.2716 6.46307 21.1779 6.79546 21.1779 7.26137V8.625C21.1779 9.01705 21.1395 9.35654 21.0628 9.64347C20.9889 9.9304 20.8668 10.1676 20.6963 10.3551C20.5259 10.5426 20.2986 10.6818 20.0145 10.7727C19.7304 10.8636 19.3796 10.9091 18.9619 10.9091V10.0739C19.2915 10.0739 19.55 10.0213 19.7375 9.9162C19.9279 9.81392 20.0614 9.65625 20.1381 9.44319C20.2176 9.23012 20.2574 8.95739 20.2574 8.625V6.92046C20.2574 6.69887 20.2858 6.49716 20.3426 6.31534C20.4023 6.13353 20.5102 5.97728 20.6665 5.84659C20.8227 5.71591 21.0443 5.61506 21.3313 5.54404C21.621 5.47302 21.996 5.4375 22.4563 5.4375ZM18.9619 3.57628e-06C19.3796 3.57628e-06 19.7304 0.0454583 20.0145 0.136368C20.2986 0.227277 20.5259 0.366481 20.6963 0.553981C20.8668 0.741481 20.9889 0.978697 21.0628 1.26563C21.1395 1.55256 21.1779 1.89205 21.1779 2.28409V3.64773C21.1779 4.11364 21.2716 4.44603 21.4591 4.64489C21.6494 4.84375 21.9818 4.94319 22.4563 4.94319V5.47159C21.996 5.47159 21.621 5.43608 21.3313 5.36506C21.0443 5.29404 20.8227 5.19319 20.6665 5.0625C20.5102 4.93182 20.4023 4.77557 20.3426 4.59375C20.2858 4.41194 20.2574 4.21023 20.2574 3.98864V2.28409C20.2574 1.95171 20.2176 1.67898 20.1381 1.46591C20.0614 1.25 19.9279 1.09091 19.7375 0.98864C19.55 0.886368 19.2915 0.835231 18.9619 0.835231V3.57628e-06ZM22.4563 4.94319V5.96591H21.4506V4.94319H22.4563ZM26.8039 5.4375V5.96591C26.3295 5.96591 25.9971 6.06534 25.8068 6.26421C25.6193 6.46307 25.5255 6.79546 25.5255 7.26137V8.625C25.5255 9.01705 25.4872 9.35654 25.4105 9.64347C25.3366 9.9304 25.2144 10.1676 25.044 10.3551C24.8735 10.5426 24.6463 10.6818 24.3622 10.7727C24.0781 10.8636 23.7272 10.9091 23.3096 10.9091V10.0739C23.6391 10.0739 23.8977 10.0213 24.0852 9.9162C24.2755 9.81392 24.409 9.65625 24.4857 9.44319C24.5653 9.23012 24.6051 8.95739 24.6051 8.625V6.92046C24.6051 6.69887 24.6335 6.49716 24.6903 6.31534C24.7499 6.13353 24.8579 5.97728 25.0141 5.84659C25.1704 5.71591 25.392 5.61506 25.6789 5.54404C25.9687 5.47302 26.3437 5.4375 26.8039 5.4375ZM23.3096 3.57628e-06C23.7272 3.57628e-06 24.0781 0.0454583 24.3622 0.136368C24.6463 0.227277 24.8735 0.366481 25.044 0.553981C25.2144 0.741481 25.3366 0.978697 25.4105 1.26563C25.4872 1.55256 25.5255 1.89205 25.5255 2.28409V3.64773C25.5255 4.11364 25.6193 4.44603 25.8068 4.64489C25.9971 4.84375 26.3295 4.94319 26.8039 4.94319V5.47159C26.3437 5.47159 25.9687 5.43608 25.6789 5.36506C25.392 5.29404 25.1704 5.19319 25.0141 5.0625C24.8579 4.93182 24.7499 4.77557 24.6903 4.59375C24.6335 4.41194 24.6051 4.21023 24.6051 3.98864V2.28409C24.6051 1.95171 24.5653 1.67898 24.4857 1.46591C24.409 1.25 24.2755 1.09091 24.0852 0.98864C23.8977 0.886368 23.6391 0.835231 23.3096 0.835231V3.57628e-06ZM26.8039 4.94319V5.96591H25.7982V4.94319H26.8039Z" fill="white"/>
</svg>
<!-- Dynamic text placeholders -->
<text
  x="13"
  y="7"
  font-size="54"
  text-anchor="middle"
  fill="black"
  font-family="Arial, sans-serif"
>
  {{name}}
</text>
</svg>

